<mxfile host="app.diagrams.net" modified="2023-07-13T12:53:29.612Z" agent="Mozilla/5.0 (Macintosh; Intel Mac OS X 10.15; rv:109.0) Gecko/20100101 Firefox/116.0" version="21.6.2" etag="97nxOFnbjfAO-B-DspUu" type="github">
  <diagram name="第 1 页" id="QJW1rj8MkvVtqN3oxkuM">
    <mxGraphModel>
      <root>
        <mxCell id="0" />
        <mxCell id="1" parent="0" />
      </root>
    </mxGraphModel>
  </diagram>
</mxfile>
